<svg width="256" height="256" viewBox="0 0 256 256" fill="none" xmlns="http://www.w3.org/2000/svg">
<path d="M3 3H233C244.046 3 253 11.9543 253 23V233C253 244.046 244.046 253 233 253H23C11.9543 253 3 244.046 3 233V3Z" fill="white"/>
<rect x="69" y="190" width="35" height="34" rx="4" fill="#00F4AE" stroke="black" stroke-width="6"/>
<path fill-rule="evenodd" clip-rule="evenodd" d="M69 73V94C69 96.7614 71.2386 99 74 99H161C163.761 99 166 101.239 166 104L166 146C166 148.761 163.761 151 161 151H108C105.791 151 104 152.791 104 155V186C104 188.209 105.791 190 108 190H166H187.769H188.193C189.657 190 191.047 189.358 191.997 188.245L200.366 178.433L203.915 174.655C204.262 174.286 204.532 173.858 204.716 173.396C204.746 173.321 204.786 173.251 204.839 173.189C204.943 173.067 205 172.912 205 172.751V171.916V155V99V65C205 62.2386 202.761 60 200 60H166H86V70C86 71.6569 84.6569 73 83 73H69Z" fill="url(#paint0_linear_3_75)"/>
<path d="M69 73V70H66V73H69ZM166 104H163H166ZM166 146H169H166ZM191.997 188.245L194.28 190.192L194.28 190.192L191.997 188.245ZM200.366 178.433L198.179 176.379L198.13 176.431L198.084 176.486L200.366 178.433ZM203.915 174.655L206.102 176.709L206.102 176.709L203.915 174.655ZM204.716 173.396L201.929 172.286L201.929 172.286L204.716 173.396ZM204.839 173.189L207.121 175.136L207.121 175.136L204.839 173.189ZM86 60V57H83V60H86ZM72 94V73H66V94H72ZM74 96C72.8954 96 72 95.1046 72 94H66C66 98.4183 69.5817 102 74 102V96ZM161 96H74V102H161V96ZM169 104C169 99.5817 165.418 96 161 96V102C162.105 102 163 102.895 163 104H169ZM169 146L169 104H163L163 146H169ZM161 154C165.418 154 169 150.418 169 146H163C163 147.105 162.105 148 161 148V154ZM108 154H161V148H108V154ZM107 155C107 154.448 107.448 154 108 154V148C104.134 148 101 151.134 101 155H107ZM107 186V155H101V186H107ZM108 187C107.448 187 107 186.552 107 186H101C101 189.866 104.134 193 108 193V187ZM166 187H108V193H166V187ZM187.769 187H166V193H187.769V187ZM188.193 187H187.769V193H188.193V187ZM189.715 186.298C189.335 186.743 188.779 187 188.193 187V193C190.535 193 192.76 191.974 194.28 190.192L189.715 186.298ZM198.084 176.486L189.715 186.298L194.28 190.192L202.649 180.38L198.084 176.486ZM201.729 172.601L198.179 176.379L202.553 180.487L206.102 176.709L201.729 172.601ZM201.929 172.286C201.883 172.402 201.815 172.508 201.729 172.601L206.102 176.709C206.708 176.063 207.181 175.314 207.503 174.506L201.929 172.286ZM202.556 171.242C202.262 171.587 202.063 171.951 201.929 172.286L207.503 174.506C207.429 174.691 207.31 174.914 207.121 175.136L202.556 171.242ZM202 172.751C202 172.198 202.197 171.663 202.556 171.242L207.121 175.136C207.688 174.471 208 173.626 208 172.751H202ZM202 171.916V172.751H208V171.916H202ZM202 155V171.916H208V155H202ZM202 99V155H208V99H202ZM202 65V99H208V65H202ZM200 63C201.105 63 202 63.8954 202 65H208C208 60.5817 204.418 57 200 57V63ZM166 63H200V57H166V63ZM86 63H166V57H86V63ZM83 60V70H89V60H83ZM83 70V76C86.3137 76 89 73.3137 89 70H83ZM83 70H69V76H83V70Z" fill="black"/>
<rect x="67" y="53" width="11" height="11" rx="2" fill="#F1D937" stroke="black" stroke-width="3"/>
<rect x="83" y="38" width="11" height="11" rx="2" fill="#F1D937" stroke="black" stroke-width="3"/>
<rect x="51" y="31" width="11" height="11" rx="2" fill="#F1D937" stroke="black" stroke-width="3"/>
<path d="M3 3H233C244.046 3 253 11.9543 253 23V233C253 244.046 244.046 253 233 253H23C11.9543 253 3 244.046 3 233V3Z" stroke="#FD9B07" stroke-width="5"/>
<defs>
<linearGradient id="paint0_linear_3_75" x1="137" y1="60" x2="137" y2="190" gradientUnits="userSpaceOnUse">
<stop stop-color="#F1D937"/>
<stop offset="0.227897" stop-color="#FD9B07"/>
</linearGradient>
</defs>
</svg>
